<svg xmlns="http://www.w3.org/2000/svg" xmlns:xlink="http://www.w3.org/1999/xlink" width="400" zoomAndPan="magnify" viewBox="0 0 300 299.999988" height="400" preserveAspectRatio="xMidYMid meet" version="1.0"><defs><clipPath id="10b20f664b"><path d="M 11 86 L 219 86 L 219 294.5625 L 11 294.5625 Z M 11 86 " clip-rule="nonzero"/></clipPath><clipPath id="fa086cbeeb"><path d="M 207 5.8125 L 262 5.8125 L 262 60 L 207 60 Z M 207 5.8125 " clip-rule="nonzero"/></clipPath></defs><g clip-path="url(#10b20f664b)"><path fill="#1cff67" d="M 183.792969 195.960938 C 181.992188 194.15625 179.289062 194.15625 177.484375 195.960938 L 148.199219 225.246094 C 129.949219 243.496094 99.757812 243.046875 80.835938 224.347656 C 62.8125 206.324219 61.683594 175.234375 79.933594 156.984375 C 79.933594 156.984375 109.222656 127.695312 109.222656 127.695312 C 111.023438 125.894531 111.023438 123.191406 109.222656 121.386719 L 75.878906 88.269531 C 74.078125 86.46875 71.148438 86.46875 69.570312 88.269531 L 40.28125 117.558594 C 0.628906 157.210938 1.53125 222.542969 42.085938 263.097656 C 62.8125 283.824219 89.621094 294.1875 116.429688 294.1875 C 142.339844 294.1875 168.023438 284.5 187.625 264.898438 C 187.625 264.898438 216.910156 235.609375 216.910156 235.609375 C 218.714844 233.808594 218.714844 230.878906 216.910156 229.304688 C 216.910156 229.304688 183.792969 196.183594 183.792969 195.960938 Z M 183.792969 195.960938 " fill-opacity="1" fill-rule="nonzero"/></g><path fill="#1cff67" d="M 103.363281 95.929688 C 104.492188 95.929688 105.617188 95.480469 106.519531 94.578125 L 120.488281 80.609375 L 122.515625 87.144531 C 122.964844 88.71875 124.089844 89.847656 125.667969 90.296875 C 127.246094 90.746094 128.824219 90.296875 129.949219 89.171875 L 151.578125 67.542969 C 153.378906 65.742188 153.378906 63.035156 151.578125 61.234375 C 149.773438 59.433594 147.070312 59.433594 145.269531 61.234375 L 128.824219 77.679688 L 126.792969 71.148438 C 126.34375 69.570312 125.21875 68.445312 123.640625 67.992188 C 122.0625 67.542969 120.488281 67.992188 119.359375 69.121094 C 119.359375 69.121094 100.210938 88.269531 100.210938 88.269531 C 97.28125 90.972656 99.308594 95.929688 103.363281 95.929688 Z M 103.363281 95.929688 " fill-opacity="1" fill-rule="nonzero"/><path fill="#1cff67" d="M 237.640625 153.605469 L 216.011719 175.234375 C 214.882812 176.359375 214.433594 177.9375 214.882812 179.511719 C 215.335938 181.089844 216.460938 182.21875 218.039062 182.667969 L 224.570312 184.695312 L 210.605469 198.664062 C 208.800781 200.464844 208.800781 203.167969 210.605469 204.972656 C 212.40625 206.773438 215.335938 206.773438 216.910156 204.972656 L 236.0625 185.820312 C 237.1875 184.695312 237.640625 183.117188 237.1875 181.539062 C 236.738281 179.964844 235.613281 178.835938 234.035156 178.386719 L 227.5 176.359375 L 243.945312 159.914062 C 245.75 158.109375 245.75 155.40625 243.945312 153.605469 C 242.144531 151.800781 239.441406 151.800781 237.640625 153.605469 Z M 237.640625 153.605469 " fill-opacity="1" fill-rule="nonzero"/><path fill="#1cff67" d="M 279.316406 77.230469 C 278.640625 72.949219 274.8125 69.34375 270.082031 68.667969 L 250.253906 65.515625 C 249.804688 65.515625 249.578125 65.289062 249.355469 65.289062 C 246.652344 66.640625 243.722656 67.542969 240.566406 68.21875 C 241.917969 71.597656 245.074219 73.851562 248.902344 74.527344 L 268.730469 77.679688 C 269.628906 77.90625 270.304688 78.355469 270.304688 78.582031 L 273.6875 100.433594 L 194.15625 100.433594 L 197.535156 78.582031 C 197.535156 78.355469 197.988281 77.90625 199.113281 77.679688 L 218.941406 74.527344 C 222.769531 73.851562 225.921875 71.597656 227.277344 68.21875 C 224.121094 67.542969 221.191406 66.640625 218.488281 65.289062 C 218.265625 65.515625 218.039062 65.515625 217.585938 65.515625 L 197.988281 68.894531 C 193.257812 69.570312 189.425781 72.949219 188.75 77.230469 L 184.46875 104.265625 C 184.246094 105.617188 184.695312 106.96875 185.597656 107.871094 C 186.496094 108.769531 187.625 109.445312 188.976562 109.445312 L 279.09375 109.445312 C 280.445312 109.445312 281.570312 108.769531 282.472656 107.871094 C 283.375 106.96875 283.597656 105.617188 283.597656 104.265625 Z M 279.316406 77.230469 " fill-opacity="1" fill-rule="nonzero"/><g clip-path="url(#fa086cbeeb)"><path fill="#1cff67" d="M 234.035156 59.882812 C 248.902344 59.882812 261.070312 47.71875 261.070312 32.847656 C 261.070312 17.976562 248.902344 5.8125 234.035156 5.8125 C 219.164062 5.8125 207 17.976562 207 32.847656 C 207 47.71875 219.164062 59.882812 234.035156 59.882812 Z M 234.035156 59.882812 " fill-opacity="1" fill-rule="nonzero"/></g><path fill="#1cff67" d="M 178.835938 82.410156 C 178.160156 78.808594 177.710938 74.976562 177.710938 71.148438 C 177.710938 53.574219 185.820312 37.804688 198.4375 27.664062 C 199.113281 22.484375 201.140625 17.527344 203.84375 13.246094 C 182.894531 24.285156 168.699219 45.914062 168.699219 71.148438 C 168.699219 81.960938 171.402344 91.875 175.910156 100.886719 Z M 178.835938 82.410156 " fill-opacity="1" fill-rule="nonzero"/><path fill="#1cff67" d="M 264.222656 13.246094 C 266.925781 17.527344 268.953125 22.257812 269.628906 27.441406 C 282.246094 37.804688 290.359375 53.574219 290.359375 71.148438 C 290.359375 74.976562 289.90625 78.808594 289.230469 82.410156 L 292.160156 100.886719 C 296.664062 91.875 299.371094 81.734375 299.371094 71.148438 C 299.371094 45.914062 285.175781 24.0625 264.222656 13.246094 Z M 264.222656 13.246094 " fill-opacity="1" fill-rule="nonzero"/><path fill="#1cff67" d="M 234.035156 127.46875 C 222.769531 127.46875 212.40625 124.089844 203.621094 118.457031 L 188.976562 118.457031 C 200.691406 129.5 216.460938 136.480469 234.035156 136.480469 C 251.605469 136.480469 267.378906 129.722656 279.09375 118.457031 L 264.675781 118.457031 C 255.664062 124.089844 245.300781 127.46875 234.035156 127.46875 Z M 234.035156 127.46875 " fill-opacity="1" fill-rule="nonzero"/></svg>