<svg xmlns="http://www.w3.org/2000/svg" xmlns:xlink="http://www.w3.org/1999/xlink" width="400" zoomAndPan="magnify" viewBox="0 0 300 299.999988" height="400" preserveAspectRatio="xMidYMid meet" version="1.0"><defs><clipPath id="101861ef5c"><path d="M 48 0.136719 L 251.90625 0.136719 L 251.90625 300 L 48 300 Z M 48 0.136719 " clip-rule="nonzero"/></clipPath></defs><g clip-path="url(#101861ef5c)"><path fill="#1cff67" d="M 145.195312 241.566406 C 146.054688 240.90625 147.019531 240.492188 148.089844 240.328125 L 148.089844 247.738281 C 147.011719 247.441406 146.003906 246.984375 145.066406 246.371094 C 144.703125 246.113281 144.421875 245.785156 144.226562 245.382812 C 144.027344 244.984375 143.9375 244.558594 143.953125 244.113281 C 143.949219 243.613281 144.058594 243.140625 144.277344 242.695312 C 144.496094 242.246094 144.800781 241.871094 145.195312 241.566406 Z M 115.765625 64.597656 L 115.765625 53.175781 C 115.765625 52.640625 115.710938 52.113281 115.609375 51.589844 C 115.503906 51.0625 115.347656 50.554688 115.144531 50.058594 C 114.941406 49.566406 114.6875 49.097656 114.390625 48.652344 C 114.09375 48.207031 113.757812 47.796875 113.378906 47.417969 C 113 47.039062 112.589844 46.703125 112.144531 46.40625 C 111.699219 46.105469 111.230469 45.855469 110.738281 45.652344 C 110.242188 45.445312 109.734375 45.292969 109.207031 45.1875 C 108.683594 45.082031 108.152344 45.03125 107.621094 45.03125 L 68.199219 45.03125 C 67.664062 45.03125 67.132812 45.082031 66.605469 45.1875 C 66.082031 45.292969 65.570312 45.445312 65.074219 45.652344 C 64.582031 45.855469 64.109375 46.105469 63.664062 46.402344 C 63.21875 46.699219 62.804688 47.039062 62.425781 47.414062 C 62.046875 47.792969 61.707031 48.203125 61.410156 48.648438 C 61.109375 49.09375 60.859375 49.5625 60.652344 50.058594 C 60.445312 50.550781 60.289062 51.0625 60.183594 51.585938 C 60.078125 52.109375 60.023438 52.640625 60.019531 53.175781 L 60.019531 64.597656 L 68.769531 64.597656 L 68.769531 59.445312 C 68.769531 59.023438 68.851562 58.617188 69.011719 58.226562 C 69.175781 57.835938 69.402344 57.492188 69.703125 57.195312 C 70 56.898438 70.34375 56.667969 70.734375 56.503906 C 71.125 56.34375 71.53125 56.261719 71.953125 56.261719 C 72.375 56.261719 72.78125 56.34375 73.167969 56.503906 C 73.558594 56.667969 73.902344 56.898438 74.203125 57.195312 C 74.5 57.492188 74.730469 57.835938 74.890625 58.226562 C 75.054688 58.617188 75.132812 59.023438 75.132812 59.445312 L 75.132812 64.597656 L 100.585938 64.597656 L 100.585938 59.445312 C 100.585938 59.023438 100.667969 58.617188 100.828125 58.226562 C 100.992188 57.835938 101.222656 57.492188 101.519531 57.195312 C 101.816406 56.898438 102.160156 56.667969 102.550781 56.503906 C 102.941406 56.34375 103.347656 56.261719 103.769531 56.261719 C 104.191406 56.261719 104.597656 56.34375 104.988281 56.503906 C 105.375 56.667969 105.722656 56.898438 106.019531 57.195312 C 106.316406 57.492188 106.546875 57.835938 106.710938 58.226562 C 106.871094 58.617188 106.953125 59.023438 106.953125 59.445312 L 106.953125 64.597656 Z M 131.480469 176.4375 C 132.101562 177.0625 132.410156 177.816406 132.40625 178.695312 L 132.40625 200.96875 L 167.59375 200.96875 L 167.59375 178.695312 C 167.589844 177.816406 167.898438 177.0625 168.519531 176.4375 L 244.65625 99.789062 L 55.34375 99.789062 Z M 169.664062 45.03125 L 130.273438 45.03125 C 129.738281 45.03125 129.207031 45.082031 128.683594 45.1875 C 128.160156 45.292969 127.648438 45.445312 127.15625 45.652344 C 126.660156 45.855469 126.191406 46.105469 125.746094 46.40625 C 125.304688 46.703125 124.890625 47.039062 124.515625 47.417969 C 124.136719 47.796875 123.796875 48.207031 123.5 48.652344 C 123.203125 49.097656 122.953125 49.566406 122.746094 50.058594 C 122.542969 50.554688 122.390625 51.0625 122.285156 51.589844 C 122.179688 52.113281 122.128906 52.640625 122.128906 53.175781 L 122.128906 64.597656 L 130.910156 64.597656 L 130.910156 59.445312 C 130.910156 59.023438 130.992188 58.617188 131.152344 58.226562 C 131.3125 57.835938 131.542969 57.492188 131.839844 57.195312 C 132.140625 56.898438 132.484375 56.667969 132.875 56.503906 C 133.261719 56.34375 133.667969 56.261719 134.089844 56.261719 C 134.511719 56.261719 134.917969 56.34375 135.308594 56.503906 C 135.699219 56.667969 136.042969 56.898438 136.339844 57.195312 C 136.640625 57.492188 136.871094 57.835938 137.03125 58.226562 C 137.191406 58.617188 137.273438 59.023438 137.273438 59.445312 L 137.273438 64.597656 L 162.726562 64.597656 L 162.726562 59.445312 C 162.726562 59.023438 162.808594 58.617188 162.96875 58.226562 C 163.128906 57.835938 163.359375 57.492188 163.660156 57.195312 C 163.957031 56.898438 164.300781 56.667969 164.691406 56.503906 C 165.082031 56.34375 165.488281 56.261719 165.910156 56.261719 C 166.332031 56.261719 166.738281 56.34375 167.125 56.503906 C 167.515625 56.667969 167.859375 56.898438 168.160156 57.195312 C 168.457031 57.492188 168.6875 57.835938 168.847656 58.226562 C 169.007812 58.617188 169.089844 59.023438 169.089844 59.445312 L 169.089844 64.597656 L 177.839844 64.597656 L 177.839844 53.175781 C 177.839844 52.644531 177.789062 52.113281 177.683594 51.59375 C 177.582031 51.070312 177.425781 50.558594 177.222656 50.066406 C 177.019531 49.574219 176.769531 49.105469 176.472656 48.660156 C 176.179688 48.21875 175.84375 47.804688 175.464844 47.429688 C 175.089844 47.050781 174.679688 46.714844 174.238281 46.414062 C 173.792969 46.117188 173.328125 45.867188 172.832031 45.660156 C 172.339844 45.457031 171.835938 45.300781 171.3125 45.195312 C 170.789062 45.085938 170.261719 45.035156 169.726562 45.03125 Z M 156.363281 257.222656 C 156.367188 256.816406 156.265625 256.441406 156.058594 256.09375 C 155.851562 255.746094 155.574219 255.472656 155.21875 255.28125 C 154.207031 254.71875 153.144531 254.273438 152.035156 253.945312 L 152.035156 261.199219 C 155.917969 260.722656 156.363281 258.714844 156.363281 257.222656 Z M 150 223.496094 C 150.898438 223.492188 151.792969 223.535156 152.683594 223.625 C 153.574219 223.710938 154.460938 223.839844 155.339844 224.015625 C 156.222656 224.1875 157.089844 224.40625 157.949219 224.664062 C 158.804688 224.925781 159.648438 225.226562 160.480469 225.566406 C 161.308594 225.910156 162.117188 226.292969 162.910156 226.714844 C 163.699219 227.136719 164.46875 227.59375 165.214844 228.09375 C 165.960938 228.589844 166.679688 229.125 167.375 229.691406 C 168.066406 230.261719 168.730469 230.859375 169.367188 231.496094 C 170 232.128906 170.601562 232.789062 171.171875 233.484375 C 171.742188 234.175781 172.273438 234.894531 172.773438 235.640625 C 173.273438 236.386719 173.730469 237.152344 174.15625 237.945312 C 174.578125 238.734375 174.960938 239.542969 175.304688 240.371094 C 175.648438 241.199219 175.953125 242.042969 176.210938 242.902344 C 176.472656 243.757812 176.691406 244.628906 176.867188 245.507812 C 177.042969 246.386719 177.171875 247.273438 177.261719 248.164062 C 177.351562 249.054688 177.394531 249.949219 177.394531 250.847656 C 177.394531 251.742188 177.351562 252.636719 177.265625 253.53125 C 177.175781 254.421875 177.046875 255.308594 176.871094 256.1875 C 176.695312 257.066406 176.476562 257.9375 176.21875 258.792969 C 175.957031 259.652344 175.65625 260.496094 175.3125 261.324219 C 174.972656 262.152344 174.589844 262.960938 174.164062 263.753906 C 173.742188 264.542969 173.28125 265.3125 172.785156 266.058594 C 172.285156 266.804688 171.753906 267.523438 171.183594 268.214844 C 170.617188 268.910156 170.015625 269.570312 169.378906 270.207031 C 168.746094 270.839844 168.082031 271.441406 167.390625 272.011719 C 166.695312 272.578125 165.976562 273.113281 165.230469 273.609375 C 164.484375 274.109375 163.71875 274.570312 162.925781 274.992188 C 162.136719 275.414062 161.328125 275.796875 160.5 276.140625 C 159.667969 276.484375 158.828125 276.785156 157.96875 277.042969 C 157.109375 277.304688 156.242188 277.523438 155.363281 277.695312 C 154.484375 277.871094 153.597656 278.003906 152.703125 278.089844 C 151.8125 278.175781 150.917969 278.222656 150.019531 278.21875 C 149.125 278.21875 148.230469 278.175781 147.339844 278.085938 C 146.445312 278 145.558594 277.867188 144.679688 277.691406 C 143.800781 277.515625 142.933594 277.296875 142.074219 277.039062 C 141.21875 276.777344 140.375 276.476562 139.546875 276.132812 C 138.71875 275.789062 137.910156 275.40625 137.117188 274.980469 C 136.328125 274.558594 135.558594 274.097656 134.8125 273.597656 C 134.070312 273.101562 133.351562 272.566406 132.65625 271.996094 C 131.964844 271.425781 131.300781 270.824219 130.667969 270.191406 C 130.035156 269.558594 129.433594 268.894531 128.867188 268.199219 C 128.296875 267.503906 127.765625 266.785156 127.265625 266.039062 C 126.769531 265.292969 126.308594 264.527344 125.886719 263.734375 C 125.464844 262.941406 125.082031 262.132812 124.742188 261.304688 C 124.398438 260.476562 124.097656 259.632812 123.839844 258.773438 C 123.578125 257.914062 123.363281 257.046875 123.1875 256.167969 C 123.015625 255.289062 122.882812 254.402344 122.796875 253.507812 C 122.710938 252.617188 122.667969 251.722656 122.667969 250.824219 C 122.671875 249.929688 122.714844 249.039062 122.804688 248.148438 C 122.890625 247.257812 123.023438 246.375 123.199219 245.496094 C 123.375 244.617188 123.59375 243.75 123.851562 242.894531 C 124.113281 242.039062 124.414062 241.199219 124.757812 240.371094 C 125.101562 239.546875 125.484375 238.738281 125.90625 237.949219 C 126.328125 237.160156 126.789062 236.394531 127.285156 235.648438 C 127.78125 234.90625 128.316406 234.1875 128.882812 233.496094 C 129.449219 232.804688 130.050781 232.140625 130.683594 231.507812 C 131.316406 230.875 131.976562 230.277344 132.667969 229.707031 C 133.363281 229.140625 134.078125 228.609375 134.824219 228.109375 C 135.566406 227.613281 136.332031 227.152344 137.121094 226.730469 C 137.910156 226.308594 138.71875 225.925781 139.546875 225.582031 C 140.371094 225.242188 141.214844 224.9375 142.070312 224.679688 C 142.925781 224.417969 143.792969 224.199219 144.671875 224.023438 C 145.546875 223.851562 146.429688 223.71875 147.320312 223.628906 C 148.210938 223.539062 149.105469 223.496094 150 223.496094 Z M 151.335938 231.863281 C 151.058594 231.613281 150.738281 231.460938 150.371094 231.402344 C 150.003906 231.339844 149.648438 231.382812 149.308594 231.53125 C 148.96875 231.679688 148.691406 231.90625 148.484375 232.210938 C 148.273438 232.519531 148.164062 232.859375 148.15625 233.230469 L 148.15625 235.523438 C 146.496094 235.695312 144.9375 236.183594 143.476562 236.984375 C 142.070312 237.742188 140.945312 238.804688 140.105469 240.167969 C 139.351562 241.488281 138.980469 242.910156 138.992188 244.429688 C 138.9375 246.113281 139.421875 247.617188 140.453125 248.949219 C 141.398438 250.089844 142.546875 250.96875 143.890625 251.589844 C 145.300781 252.179688 146.742188 252.679688 148.21875 253.085938 L 148.21875 261.355469 C 146.105469 261.175781 144.082031 260.65625 142.140625 259.796875 C 141.675781 259.585938 141.195312 259.527344 140.691406 259.621094 C 140.191406 259.714844 139.761719 259.941406 139.40625 260.308594 C 138.957031 260.769531 138.746094 261.320312 138.769531 261.960938 C 138.757812 262.46875 138.90625 262.925781 139.214844 263.332031 C 139.484375 263.742188 139.84375 264.050781 140.296875 264.253906 C 142.835938 265.316406 145.476562 265.964844 148.21875 266.195312 L 148.21875 268.484375 C 148.199219 269.027344 148.378906 269.496094 148.757812 269.882812 C 149.140625 270.222656 149.585938 270.394531 150.09375 270.394531 C 150.640625 270.414062 151.105469 270.234375 151.496094 269.851562 C 151.863281 269.46875 152.042969 269.015625 152.035156 268.484375 L 152.035156 266.195312 C 153.613281 266.023438 155.109375 265.578125 156.523438 264.855469 C 158.023438 264.136719 159.222656 263.078125 160.117188 261.675781 C 160.984375 260.375 161.410156 258.945312 161.390625 257.378906 C 161.476562 255.632812 160.988281 254.0625 159.925781 252.671875 C 158.988281 251.488281 157.824219 250.605469 156.425781 250.03125 C 154.957031 249.445312 153.449219 248.96875 151.910156 248.597656 L 151.910156 240.007812 C 153.65625 240.117188 155.351562 240.46875 157 241.058594 C 157.296875 241.175781 157.605469 241.238281 157.921875 241.25 C 158.605469 241.261719 159.167969 241.007812 159.609375 240.484375 C 160.007812 240.015625 160.207031 239.476562 160.214844 238.863281 C 160.230469 238.351562 160.089844 237.886719 159.796875 237.464844 C 159.5 237.046875 159.109375 236.761719 158.621094 236.605469 C 156.453125 235.820312 154.214844 235.363281 151.910156 235.234375 L 151.910156 233.039062 C 151.894531 232.535156 151.703125 232.113281 151.335938 231.765625 Z M 50.890625 93.425781 L 249.109375 93.425781 L 249.109375 70.960938 L 50.890625 70.960938 Z M 184.234375 53.175781 L 184.234375 64.597656 L 192.984375 64.597656 L 192.984375 59.445312 C 192.984375 59.023438 193.066406 58.617188 193.226562 58.226562 C 193.390625 57.835938 193.617188 57.492188 193.917969 57.195312 C 194.214844 56.898438 194.558594 56.667969 194.949219 56.503906 C 195.339844 56.34375 195.746094 56.261719 196.167969 56.261719 C 196.589844 56.261719 196.996094 56.34375 197.382812 56.503906 C 197.773438 56.667969 198.117188 56.898438 198.417969 57.195312 C 198.714844 57.492188 198.945312 57.835938 199.105469 58.226562 C 199.269531 58.617188 199.347656 59.023438 199.347656 59.445312 L 199.347656 64.597656 L 224.800781 64.597656 L 224.800781 59.445312 C 224.800781 59.023438 224.882812 58.617188 225.042969 58.226562 C 225.207031 57.835938 225.4375 57.492188 225.734375 57.195312 C 226.03125 56.898438 226.375 56.667969 226.765625 56.503906 C 227.15625 56.34375 227.5625 56.261719 227.984375 56.261719 C 228.40625 56.261719 228.8125 56.34375 229.203125 56.503906 C 229.589844 56.667969 229.9375 56.898438 230.234375 57.195312 C 230.53125 57.492188 230.761719 57.835938 230.921875 58.226562 C 231.085938 58.617188 231.164062 59.023438 231.164062 59.445312 L 231.164062 64.597656 L 239.914062 64.597656 L 239.914062 53.175781 C 239.914062 52.640625 239.859375 52.109375 239.753906 51.585938 C 239.648438 51.0625 239.492188 50.550781 239.285156 50.058594 C 239.078125 49.5625 238.824219 49.09375 238.527344 48.648438 C 238.226562 48.203125 237.890625 47.792969 237.507812 47.414062 C 237.128906 47.039062 236.71875 46.699219 236.273438 46.402344 C 235.824219 46.105469 235.355469 45.855469 234.859375 45.652344 C 234.367188 45.445312 233.855469 45.292969 233.328125 45.1875 C 232.804688 45.082031 232.273438 45.03125 231.738281 45.03125 L 192.378906 45.03125 C 191.847656 45.03125 191.316406 45.082031 190.792969 45.1875 C 190.265625 45.292969 189.757812 45.445312 189.261719 45.652344 C 188.769531 45.855469 188.300781 46.105469 187.855469 46.40625 C 187.410156 46.703125 187 47.039062 186.621094 47.417969 C 186.242188 47.796875 185.90625 48.207031 185.609375 48.652344 C 185.3125 49.097656 185.058594 49.566406 184.855469 50.058594 C 184.652344 50.554688 184.496094 51.0625 184.390625 51.589844 C 184.289062 52.113281 184.234375 52.640625 184.234375 53.175781 Z M 172.75 207.203125 C 173.554688 207.625 174.347656 208.066406 175.125 208.53125 C 175.90625 208.996094 176.671875 209.480469 177.425781 209.988281 C 178.179688 210.496094 178.917969 211.023438 179.640625 211.570312 C 180.363281 212.117188 181.074219 212.683594 181.765625 213.273438 C 182.457031 213.859375 183.132812 214.464844 183.792969 215.089844 C 184.453125 215.714844 185.09375 216.355469 185.714844 217.015625 C 186.339844 217.675781 186.945312 218.351562 187.53125 219.046875 C 188.113281 219.738281 188.679688 220.449219 189.226562 221.171875 C 189.773438 221.898438 190.300781 222.636719 190.804688 223.390625 C 191.3125 224.144531 191.796875 224.914062 192.257812 225.695312 C 192.722656 226.472656 193.160156 227.265625 193.582031 228.074219 C 194 228.878906 194.394531 229.695312 194.769531 230.519531 C 195.144531 231.347656 195.492188 232.183594 195.820312 233.03125 C 196.148438 233.878906 196.453125 234.734375 196.730469 235.597656 C 197.011719 236.460938 197.269531 237.332031 197.5 238.210938 C 197.730469 239.085938 197.9375 239.96875 198.121094 240.859375 C 198.304688 241.75 198.460938 242.640625 198.59375 243.539062 C 198.726562 244.4375 198.835938 245.339844 198.917969 246.242188 C 199.003906 247.148438 199.058594 248.050781 199.09375 248.960938 C 199.125 249.867188 199.132812 250.773438 199.117188 251.679688 C 199.101562 252.589844 199.058594 253.496094 198.988281 254.402344 C 198.921875 255.304688 198.828125 256.207031 198.710938 257.109375 C 198.59375 258.007812 198.453125 258.90625 198.285156 259.796875 C 198.117188 260.6875 197.925781 261.578125 197.710938 262.457031 C 197.492188 263.339844 197.253906 264.214844 196.988281 265.082031 C 196.722656 265.949219 196.433594 266.8125 196.121094 267.664062 C 195.808594 268.515625 195.472656 269.359375 195.113281 270.191406 C 194.753906 271.027344 194.371094 271.847656 193.964844 272.660156 C 193.5625 273.472656 193.132812 274.273438 192.683594 275.0625 C 192.234375 275.851562 191.765625 276.628906 191.273438 277.390625 C 190.78125 278.152344 190.265625 278.902344 189.734375 279.636719 C 189.199219 280.367188 188.644531 281.085938 188.074219 281.792969 C 187.5 282.496094 186.90625 283.183594 186.292969 283.851562 C 185.683594 284.523438 185.050781 285.175781 184.40625 285.8125 C 183.757812 286.449219 183.089844 287.066406 182.410156 287.664062 C 181.726562 288.261719 181.027344 288.84375 180.316406 289.402344 C 179.601562 289.960938 178.871094 290.503906 178.125 291.023438 C 177.382812 291.542969 176.625 292.039062 175.851562 292.519531 C 175.082031 292.996094 174.296875 293.453125 173.5 293.886719 C 172.703125 294.320312 171.894531 294.730469 171.074219 295.121094 C 170.253906 295.511719 169.421875 295.878906 168.582031 296.222656 C 167.742188 296.5625 166.894531 296.882812 166.035156 297.179688 C 165.175781 297.476562 164.3125 297.75 163.4375 297.996094 C 162.566406 298.246094 161.6875 298.46875 160.800781 298.667969 C 159.914062 298.867188 159.023438 299.042969 158.128906 299.195312 C 157.234375 299.34375 156.335938 299.46875 155.433594 299.570312 C 154.53125 299.671875 153.628906 299.746094 152.722656 299.796875 C 151.816406 299.847656 150.90625 299.871094 150 299.871094 C 149.09375 299.871094 148.183594 299.847656 147.277344 299.796875 C 146.371094 299.746094 145.46875 299.671875 144.566406 299.570312 C 143.664062 299.46875 142.765625 299.34375 141.871094 299.195312 C 140.976562 299.042969 140.085938 298.867188 139.199219 298.667969 C 138.3125 298.46875 137.433594 298.246094 136.5625 297.996094 C 135.6875 297.75 134.820312 297.476562 133.964844 297.179688 C 133.105469 296.882812 132.257812 296.5625 131.417969 296.222656 C 130.578125 295.878906 129.746094 295.511719 128.925781 295.121094 C 128.105469 294.730469 127.296875 294.320312 126.5 293.886719 C 125.703125 293.453125 124.917969 292.996094 124.148438 292.519531 C 123.375 292.039062 122.617188 291.542969 121.871094 291.023438 C 121.128906 290.503906 120.398438 289.960938 119.683594 289.402344 C 118.972656 288.84375 118.273438 288.261719 117.589844 287.664062 C 116.910156 287.066406 116.242188 286.449219 115.59375 285.8125 C 114.949219 285.175781 114.316406 284.523438 113.707031 283.851562 C 113.09375 283.183594 112.5 282.496094 111.925781 281.792969 C 111.355469 281.085938 110.800781 280.367188 110.265625 279.636719 C 109.734375 278.902344 109.21875 278.152344 108.726562 277.390625 C 108.234375 276.628906 107.765625 275.851562 107.316406 275.0625 C 106.867188 274.273438 106.4375 273.472656 106.035156 272.660156 C 105.628906 271.847656 105.246094 271.027344 104.886719 270.191406 C 104.527344 269.359375 104.191406 268.515625 103.878906 267.664062 C 103.566406 266.8125 103.277344 265.949219 103.011719 265.082031 C 102.746094 264.214844 102.507812 263.339844 102.289062 262.457031 C 102.074219 261.578125 101.882812 260.6875 101.714844 259.796875 C 101.546875 258.90625 101.40625 258.007812 101.289062 257.109375 C 101.171875 256.207031 101.078125 255.304688 101.011719 254.402344 C 100.941406 253.496094 100.898438 252.589844 100.882812 251.679688 C 100.867188 250.773438 100.875 249.867188 100.90625 248.960938 C 100.941406 248.050781 100.996094 247.148438 101.082031 246.242188 C 101.164062 245.339844 101.273438 244.4375 101.40625 243.539062 C 101.539062 242.640625 101.695312 241.75 101.878906 240.859375 C 102.0625 239.96875 102.269531 239.085938 102.5 238.210938 C 102.730469 237.332031 102.988281 236.460938 103.269531 235.597656 C 103.546875 234.734375 103.851562 233.878906 104.179688 233.03125 C 104.507812 232.183594 104.855469 231.347656 105.230469 230.519531 C 105.605469 229.695312 106 228.878906 106.417969 228.074219 C 106.839844 227.265625 107.277344 226.472656 107.742188 225.695312 C 108.203125 224.914062 108.6875 224.144531 109.195312 223.390625 C 109.699219 222.636719 110.226562 221.898438 110.773438 221.171875 C 111.320312 220.449219 111.886719 219.738281 112.46875 219.046875 C 113.054688 218.351562 113.660156 217.675781 114.285156 217.015625 C 114.90625 216.355469 115.546875 215.714844 116.207031 215.089844 C 116.867188 214.464844 117.542969 213.859375 118.234375 213.273438 C 118.925781 212.683594 119.632812 212.117188 120.359375 211.570312 C 121.082031 211.023438 121.820312 210.496094 122.574219 209.988281 C 123.328125 209.480469 124.09375 208.996094 124.875 208.53125 C 125.652344 208.066406 126.445312 207.625 127.25 207.203125 Z M 150 217.132812 C 148.894531 217.132812 147.792969 217.1875 146.691406 217.292969 C 145.589844 217.402344 144.5 217.566406 143.414062 217.78125 C 142.332031 217.996094 141.261719 218.265625 140.203125 218.585938 C 139.144531 218.90625 138.105469 219.28125 137.082031 219.703125 C 136.0625 220.125 135.066406 220.597656 134.089844 221.121094 C 133.113281 221.640625 132.167969 222.210938 131.25 222.824219 C 130.332031 223.4375 129.445312 224.097656 128.589844 224.800781 C 127.734375 225.5 126.917969 226.242188 126.136719 227.023438 C 125.355469 227.808594 124.613281 228.625 123.914062 229.480469 C 123.214844 230.335938 122.554688 231.222656 121.941406 232.144531 C 121.328125 233.0625 120.761719 234.011719 120.242188 234.984375 C 119.722656 235.960938 119.25 236.960938 118.828125 237.980469 C 118.40625 239.003906 118.035156 240.042969 117.714844 241.101562 C 117.394531 242.160156 117.128906 243.230469 116.914062 244.316406 C 116.699219 245.398438 116.539062 246.492188 116.433594 247.589844 C 116.324219 248.691406 116.273438 249.792969 116.273438 250.898438 C 116.273438 252.003906 116.332031 253.109375 116.441406 254.207031 C 116.550781 255.308594 116.714844 256.402344 116.929688 257.484375 C 117.148438 258.566406 117.417969 259.640625 117.742188 260.695312 C 118.0625 261.753906 118.4375 262.792969 118.863281 263.8125 C 119.285156 264.835938 119.761719 265.832031 120.28125 266.804688 C 120.804688 267.78125 121.375 268.726562 121.992188 269.644531 C 122.605469 270.5625 123.265625 271.449219 123.96875 272.300781 C 124.671875 273.152344 125.414062 273.96875 126.195312 274.75 C 126.980469 275.53125 127.800781 276.269531 128.65625 276.96875 C 129.511719 277.671875 130.398438 278.328125 131.320312 278.9375 C 132.242188 279.550781 133.1875 280.117188 134.164062 280.636719 C 135.140625 281.15625 136.140625 281.625 137.164062 282.046875 C 138.183594 282.464844 139.226562 282.835938 140.285156 283.152344 C 141.34375 283.472656 142.414062 283.738281 143.5 283.953125 C 144.582031 284.164062 145.675781 284.324219 146.777344 284.429688 C 147.875 284.535156 148.980469 284.585938 150.085938 284.582031 C 151.191406 284.582031 152.292969 284.523438 153.394531 284.414062 C 154.492188 284.300781 155.585938 284.136719 156.667969 283.917969 C 157.753906 283.699219 158.824219 283.429688 159.878906 283.105469 C 160.9375 282.78125 161.976562 282.40625 162.996094 281.980469 C 164.015625 281.554688 165.011719 281.078125 165.984375 280.554688 C 166.957031 280.03125 167.902344 279.460938 168.820312 278.84375 C 169.738281 278.226562 170.625 277.566406 171.476562 276.863281 C 172.328125 276.160156 173.144531 275.414062 173.921875 274.628906 C 174.703125 273.847656 175.441406 273.027344 176.140625 272.167969 C 176.839844 271.3125 177.492188 270.421875 178.105469 269.503906 C 178.714844 268.582031 179.28125 267.632812 179.796875 266.65625 C 180.316406 265.679688 180.785156 264.679688 181.203125 263.65625 C 181.625 262.632812 181.992188 261.59375 182.308594 260.535156 C 182.625 259.476562 182.890625 258.402344 183.101562 257.316406 C 183.3125 256.234375 183.472656 255.140625 183.574219 254.039062 C 183.679688 252.9375 183.730469 251.835938 183.726562 250.730469 C 183.722656 249.628906 183.664062 248.53125 183.550781 247.433594 C 183.441406 246.335938 183.273438 245.25 183.054688 244.167969 C 182.839844 243.089844 182.566406 242.023438 182.246094 240.96875 C 181.921875 239.914062 181.546875 238.878906 181.121094 237.863281 C 180.699219 236.847656 180.226562 235.851562 179.703125 234.882812 C 179.179688 233.910156 178.613281 232.96875 178 232.054688 C 177.382812 231.140625 176.726562 230.257812 176.027344 229.40625 C 175.324219 228.554688 174.582031 227.742188 173.804688 226.964844 C 173.023438 226.1875 172.207031 225.449219 171.351562 224.75 C 170.5 224.054688 169.613281 223.398438 168.699219 222.789062 C 167.78125 222.179688 166.835938 221.613281 165.863281 221.09375 C 164.890625 220.578125 163.894531 220.105469 162.878906 219.6875 C 161.859375 219.265625 160.820312 218.894531 159.765625 218.578125 C 158.710938 218.257812 157.644531 217.992188 156.5625 217.777344 C 155.484375 217.5625 154.394531 217.402344 153.296875 217.292969 C 152.203125 217.183594 151.101562 217.132812 150 217.132812 Z M 87.894531 0.773438 C 87.039062 0.773438 86.195312 0.855469 85.359375 1.023438 C 84.523438 1.191406 83.710938 1.4375 82.925781 1.761719 C 82.136719 2.089844 81.390625 2.488281 80.679688 2.960938 C 79.972656 3.433594 79.316406 3.972656 78.714844 4.574219 C 78.109375 5.179688 77.574219 5.835938 77.097656 6.542969 C 76.625 7.253906 76.226562 8 75.898438 8.789062 C 75.574219 9.574219 75.328125 10.386719 75.160156 11.222656 C 74.996094 12.058594 74.910156 12.902344 74.910156 13.753906 C 74.910156 21.167969 80.894531 30.203125 87.894531 30.203125 C 94.890625 30.203125 100.875 21.167969 100.875 13.753906 C 100.875 12.902344 100.789062 12.058594 100.625 11.222656 C 100.457031 10.386719 100.210938 9.574219 99.886719 8.789062 C 99.558594 8 99.160156 7.253906 98.6875 6.542969 C 98.210938 5.835938 97.675781 5.179688 97.070312 4.574219 C 96.46875 3.972656 95.8125 3.433594 95.105469 2.960938 C 94.394531 2.488281 93.648438 2.089844 92.859375 1.761719 C 92.074219 1.4375 91.261719 1.191406 90.425781 1.023438 C 89.589844 0.855469 88.746094 0.773438 87.894531 0.773438 Z M 162.980469 13.753906 C 162.980469 12.902344 162.898438 12.058594 162.730469 11.222656 C 162.566406 10.386719 162.320312 9.574219 161.992188 8.789062 C 161.667969 8 161.265625 7.253906 160.792969 6.542969 C 160.320312 5.835938 159.78125 5.179688 159.179688 4.574219 C 158.578125 3.972656 157.921875 3.433594 157.210938 2.960938 C 156.503906 2.488281 155.753906 2.089844 154.96875 1.761719 C 154.179688 1.4375 153.367188 1.191406 152.53125 1.023438 C 151.695312 0.855469 150.851562 0.773438 150 0.773438 C 149.148438 0.773438 148.304688 0.855469 147.46875 1.023438 C 146.632812 1.191406 145.820312 1.4375 145.03125 1.761719 C 144.246094 2.089844 143.496094 2.488281 142.789062 2.960938 C 142.078125 3.433594 141.421875 3.972656 140.820312 4.574219 C 140.21875 5.179688 139.679688 5.835938 139.207031 6.542969 C 138.734375 7.253906 138.332031 8 138.007812 8.789062 C 137.679688 9.574219 137.433594 10.386719 137.269531 11.222656 C 137.101562 12.058594 137.019531 12.902344 137.019531 13.753906 C 137.019531 21.167969 143 30.203125 150 30.203125 C 157 30.203125 162.980469 21.167969 162.980469 13.753906 Z M 199.125 13.753906 C 199.125 21.167969 205.109375 30.203125 212.105469 30.203125 C 219.105469 30.203125 225.089844 21.167969 225.089844 13.753906 C 225.089844 12.902344 225.003906 12.058594 224.839844 11.222656 C 224.671875 10.386719 224.425781 9.574219 224.101562 8.789062 C 223.773438 8 223.375 7.253906 222.902344 6.542969 C 222.425781 5.835938 221.890625 5.179688 221.285156 4.574219 C 220.683594 3.972656 220.027344 3.433594 219.320312 2.960938 C 218.609375 2.488281 217.863281 2.089844 217.074219 1.761719 C 216.289062 1.4375 215.476562 1.191406 214.640625 1.023438 C 213.804688 0.855469 212.960938 0.773438 212.105469 0.773438 C 211.253906 0.773438 210.410156 0.855469 209.574219 1.023438 C 208.738281 1.191406 207.925781 1.4375 207.140625 1.761719 C 206.351562 2.089844 205.605469 2.488281 204.894531 2.960938 C 204.1875 3.433594 203.53125 3.972656 202.929688 4.574219 C 202.324219 5.179688 201.789062 5.835938 201.3125 6.542969 C 200.839844 7.253906 200.441406 8 200.113281 8.789062 C 199.789062 9.574219 199.542969 10.386719 199.375 11.222656 C 199.210938 12.058594 199.125 12.902344 199.125 13.753906 Z M 251.496094 250.730469 C 251.496094 250.308594 251.417969 249.902344 251.253906 249.511719 C 251.09375 249.121094 250.863281 248.777344 250.566406 248.480469 C 250.265625 248.183594 249.921875 247.953125 249.53125 247.789062 C 249.144531 247.628906 248.738281 247.546875 248.316406 247.546875 L 230.242188 247.546875 C 229.820312 247.546875 229.414062 247.628906 229.027344 247.789062 C 228.636719 247.953125 228.292969 248.183594 227.992188 248.480469 C 227.695312 248.777344 227.464844 249.121094 227.304688 249.511719 C 227.140625 249.902344 227.0625 250.308594 227.0625 250.730469 C 227.0625 251.152344 227.140625 251.558594 227.304688 251.949219 C 227.464844 252.335938 227.695312 252.683594 227.992188 252.980469 C 228.292969 253.277344 228.636719 253.507812 229.027344 253.671875 C 229.414062 253.832031 229.820312 253.914062 230.242188 253.914062 L 248.316406 253.914062 C 248.738281 253.914062 249.144531 253.832031 249.53125 253.671875 C 249.921875 253.507812 250.265625 253.277344 250.566406 252.980469 C 250.863281 252.683594 251.09375 252.335938 251.253906 251.949219 C 251.417969 251.558594 251.496094 251.152344 251.496094 250.730469 Z M 219.996094 274.6875 L 235.90625 280.289062 C 236.257812 280.414062 236.617188 280.480469 236.988281 280.480469 C 237.335938 280.445312 237.671875 280.351562 237.992188 280.207031 C 238.308594 280.058594 238.597656 279.863281 238.851562 279.625 C 239.105469 279.382812 239.316406 279.105469 239.476562 278.792969 C 239.640625 278.484375 239.75 278.15625 239.804688 277.808594 C 239.859375 277.460938 239.855469 277.117188 239.796875 276.769531 C 239.734375 276.421875 239.621094 276.097656 239.453125 275.789062 C 239.285156 275.480469 239.070312 275.207031 238.8125 274.96875 C 238.554688 274.734375 238.265625 274.542969 237.941406 274.402344 L 222.289062 268.800781 C 221.914062 268.707031 221.53125 268.679688 221.144531 268.722656 C 220.757812 268.769531 220.394531 268.878906 220.046875 269.058594 C 219.703125 269.234375 219.398438 269.46875 219.140625 269.757812 C 218.878906 270.042969 218.679688 270.371094 218.539062 270.730469 C 218.398438 271.09375 218.324219 271.46875 218.320312 271.859375 C 218.320312 272.246094 218.382812 272.621094 218.519531 272.988281 C 218.652344 273.351562 218.847656 273.679688 219.101562 273.972656 C 219.355469 274.265625 219.65625 274.503906 219.996094 274.6875 Z M 221.207031 233.039062 C 221.578125 233.039062 221.9375 232.976562 222.289062 232.847656 L 237.941406 227.21875 C 238.34375 227.082031 238.703125 226.875 239.023438 226.597656 C 239.34375 226.320312 239.597656 225.992188 239.785156 225.613281 C 239.972656 225.234375 240.082031 224.832031 240.113281 224.410156 C 240.140625 223.988281 240.085938 223.578125 239.953125 223.175781 C 239.816406 222.773438 239.609375 222.414062 239.332031 222.09375 C 239.054688 221.777344 238.722656 221.523438 238.34375 221.335938 C 237.964844 221.148438 237.5625 221.039062 237.140625 221.011719 C 236.71875 220.984375 236.308594 221.035156 235.90625 221.171875 L 219.996094 226.675781 C 219.605469 226.820312 219.253906 227.03125 218.945312 227.316406 C 218.636719 227.597656 218.394531 227.925781 218.214844 228.304688 C 218.035156 228.683594 217.9375 229.082031 217.914062 229.5 C 217.890625 229.917969 217.949219 230.324219 218.089844 230.71875 C 218.183594 231.054688 218.332031 231.371094 218.53125 231.660156 C 218.730469 231.949219 218.96875 232.199219 219.25 232.410156 C 219.535156 232.621094 219.84375 232.78125 220.175781 232.886719 C 220.511719 232.996094 220.855469 233.046875 221.207031 233.039062 Z M 48.503906 250.730469 C 48.503906 251.152344 48.582031 251.558594 48.746094 251.949219 C 48.90625 252.335938 49.136719 252.683594 49.433594 252.980469 C 49.734375 253.277344 50.078125 253.507812 50.46875 253.671875 C 50.855469 253.832031 51.261719 253.914062 51.683594 253.914062 L 69.757812 253.914062 C 70.179688 253.914062 70.585938 253.832031 70.972656 253.671875 C 71.363281 253.507812 71.707031 253.277344 72.007812 252.980469 C 72.304688 252.683594 72.535156 252.335938 72.695312 251.949219 C 72.859375 251.558594 72.9375 251.152344 72.9375 250.730469 C 72.9375 250.308594 72.859375 249.902344 72.695312 249.511719 C 72.535156 249.121094 72.304688 248.777344 72.007812 248.480469 C 71.707031 248.183594 71.363281 247.953125 70.972656 247.789062 C 70.585938 247.628906 70.179688 247.546875 69.757812 247.546875 L 51.683594 247.546875 C 51.261719 247.546875 50.855469 247.628906 50.46875 247.789062 C 50.078125 247.953125 49.734375 248.183594 49.433594 248.480469 C 49.136719 248.777344 48.90625 249.121094 48.746094 249.511719 C 48.582031 249.902344 48.503906 250.308594 48.503906 250.730469 Z M 77.710938 268.707031 L 62.058594 274.402344 C 61.707031 274.53125 61.386719 274.714844 61.101562 274.953125 C 60.8125 275.195312 60.574219 275.476562 60.386719 275.800781 C 60.203125 276.125 60.074219 276.46875 60.007812 276.835938 C 59.945312 277.207031 59.945312 277.574219 60.007812 277.941406 C 60.074219 278.3125 60.199219 278.65625 60.386719 278.980469 C 60.570312 279.304688 60.808594 279.585938 61.09375 279.828125 C 61.382812 280.070312 61.699219 280.253906 62.050781 280.382812 C 62.402344 280.511719 62.765625 280.574219 63.140625 280.574219 C 63.511719 280.574219 63.871094 280.511719 64.21875 280.382812 L 80.003906 274.6875 C 80.410156 274.554688 80.777344 274.34375 81.097656 274.0625 C 81.421875 273.78125 81.679688 273.445312 81.867188 273.058594 C 82.054688 272.671875 82.160156 272.265625 82.183594 271.835938 C 82.203125 271.40625 82.144531 270.988281 81.996094 270.585938 C 81.851562 270.179688 81.632812 269.820312 81.339844 269.507812 C 81.046875 269.191406 80.707031 268.945312 80.3125 268.769531 C 79.921875 268.589844 79.511719 268.496094 79.082031 268.488281 C 78.652344 268.476562 78.238281 268.550781 77.839844 268.707031 Z M 80.003906 226.675781 L 64.09375 221.171875 C 63.695312 221.015625 63.277344 220.941406 62.847656 220.953125 C 62.417969 220.960938 62.007812 221.054688 61.617188 221.234375 C 61.226562 221.410156 60.882812 221.65625 60.59375 221.972656 C 60.300781 222.285156 60.082031 222.644531 59.933594 223.050781 C 59.789062 223.453125 59.726562 223.871094 59.75 224.300781 C 59.773438 224.730469 59.878906 225.136719 60.066406 225.523438 C 60.253906 225.910156 60.507812 226.246094 60.832031 226.527344 C 61.15625 226.808594 61.523438 227.019531 61.929688 227.152344 L 77.582031 232.785156 C 77.984375 232.929688 78.394531 232.988281 78.816406 232.96875 C 79.238281 232.945312 79.640625 232.84375 80.023438 232.660156 C 80.40625 232.480469 80.738281 232.230469 81.019531 231.917969 C 81.304688 231.601562 81.515625 231.242188 81.65625 230.84375 C 81.820312 230.457031 81.90625 230.054688 81.914062 229.636719 C 81.917969 229.214844 81.84375 228.808594 81.6875 228.417969 C 81.535156 228.027344 81.308594 227.683594 81.019531 227.382812 C 80.726562 227.078125 80.386719 226.84375 80.003906 226.675781 Z M 80.003906 226.675781 " fill-opacity="1" fill-rule="nonzero"/></g></svg>