<svg xmlns="http://www.w3.org/2000/svg" xmlns:xlink="http://www.w3.org/1999/xlink" width="400" zoomAndPan="magnify" viewBox="0 0 300 299.999988" height="400" preserveAspectRatio="xMidYMid meet" version="1.0"><defs><clipPath id="7c1cd4318b"><path d="M 48 26.25 L 252 26.25 L 252 273.75 L 48 273.75 Z M 48 26.25 " clip-rule="nonzero"/></clipPath></defs><g clip-path="url(#7c1cd4318b)"><path fill="#1cff67" d="M 225.925781 227.804688 L 223.84375 227.804688 C 204.582031 246.089844 178.625 257.296875 150.015625 257.296875 C 121.40625 257.296875 95.449219 246.027344 76.1875 227.804688 L 74.167969 227.804688 C 69.746094 227.804688 65.230469 227.488281 60.621094 226.828125 C 59.167969 227.964844 57.652344 229.164062 55.949219 230.300781 C 78.589844 256.886719 112.34375 273.75 149.984375 273.75 C 187.625 273.75 221.378906 256.917969 244.113281 230.300781 C 242.410156 229.164062 240.894531 227.964844 239.441406 226.828125 C 234.863281 227.488281 230.347656 227.804688 225.925781 227.804688 Z M 149.984375 42.765625 C 180.359375 42.765625 207.929688 55.492188 227.441406 75.890625 C 235.808594 76.046875 243.894531 77.183594 251.535156 79.269531 C 229.148438 47.28125 191.980469 26.25 149.984375 26.25 C 108.082031 26.25 70.914062 47.183594 48.589844 79.203125 C 56.167969 77.183594 64.15625 76.046875 72.429688 75.890625 C 92.070312 55.523438 119.542969 42.765625 149.984375 42.765625 Z M 149.984375 42.765625 " fill-opacity="1" fill-rule="nonzero"/></g><path fill="#1cff67" d="M 142.59375 127.800781 C 131.386719 105.414062 104.957031 89.59375 74.167969 89.59375 C 69.496094 89.59375 64.980469 89.910156 60.621094 90.636719 C 52.570312 91.835938 44.894531 94.171875 37.980469 97.488281 C 15.339844 108.128906 0.0234375 128.527344 0.0234375 151.800781 C 0.0234375 169.453125 8.804688 185.335938 22.824219 196.703125 C 19.667969 204.847656 14.359375 216.597656 7.191406 224.425781 C 4.605469 227.332031 6.878906 231.910156 10.730469 231.753906 C 26.769531 230.867188 39.023438 225.3125 47.546875 219.5 C 51.179688 217.007812 54.148438 214.417969 56.484375 212.238281 C 58.820312 212.710938 61.160156 213.121094 63.496094 213.375 C 66.96875 213.847656 70.503906 214.101562 74.136719 214.101562 C 104.925781 214.101562 131.355469 198.3125 142.5625 175.828125 C 139.660156 168.25 138.046875 160.199219 138.046875 151.800781 C 138.078125 143.433594 139.691406 135.378906 142.59375 127.800781 Z M 37.886719 164.050781 C 32.488281 164.050781 27.972656 160.515625 26.359375 155.683594 C 25.886719 154.484375 25.632812 153.09375 25.632812 151.738281 C 25.632812 150.441406 25.792969 149.242188 26.265625 148.105469 C 27.71875 143.117188 32.390625 139.390625 37.855469 139.390625 C 39.78125 139.390625 41.550781 139.800781 43.160156 140.683594 C 47.265625 142.609375 50.167969 146.90625 50.167969 151.738281 C 50.167969 156.503906 47.421875 160.671875 43.410156 162.628906 C 41.769531 163.578125 39.90625 164.050781 37.886719 164.050781 Z M 74.167969 164.050781 C 67.410156 164.050781 61.851562 158.496094 61.851562 151.738281 C 61.851562 144.980469 67.410156 139.390625 74.167969 139.390625 C 80.925781 139.390625 86.484375 144.949219 86.484375 151.738281 C 86.484375 158.496094 80.925781 164.050781 74.167969 164.050781 Z M 110.417969 164.050781 C 103.660156 164.050781 98.101562 158.496094 98.101562 151.738281 C 98.101562 144.980469 103.660156 139.390625 110.417969 139.390625 C 117.175781 139.390625 122.671875 144.949219 122.671875 151.738281 C 122.671875 158.496094 117.207031 164.050781 110.417969 164.050781 Z M 110.417969 164.050781 " fill-opacity="1" fill-rule="nonzero"/><path fill="#1cff67" d="M 151.785156 151.832031 C 151.785156 186.21875 184.972656 214.101562 225.894531 214.101562 C 231.988281 214.101562 237.863281 213.40625 243.515625 212.269531 C 251.410156 219.753906 266.503906 230.457031 289.269531 231.753906 C 293.152344 231.972656 295.425781 227.363281 292.808594 224.488281 C 285.671875 216.597656 280.332031 204.878906 277.175781 196.703125 C 291.195312 185.367188 299.976562 169.484375 299.976562 151.863281 C 299.976562 117.476562 266.789062 89.59375 225.863281 89.59375 C 184.972656 89.5625 151.785156 117.445312 151.785156 151.832031 Z M 249.863281 151.738281 C 249.863281 144.949219 255.355469 139.453125 262.144531 139.453125 C 268.933594 139.453125 274.429688 144.949219 274.429688 151.738281 C 274.429688 158.527344 268.933594 164.019531 262.144531 164.019531 C 255.355469 164.019531 249.863281 158.527344 249.863281 151.738281 Z M 213.582031 151.738281 C 213.582031 144.949219 219.074219 139.453125 225.863281 139.453125 C 232.652344 139.453125 238.148438 144.949219 238.148438 151.738281 C 238.148438 158.527344 232.652344 164.019531 225.863281 164.019531 C 219.105469 164.019531 213.582031 158.527344 213.582031 151.738281 Z M 177.328125 151.738281 C 177.328125 144.949219 182.824219 139.453125 189.613281 139.453125 C 196.402344 139.453125 201.898438 144.949219 201.898438 151.738281 C 201.898438 158.527344 196.402344 164.019531 189.613281 164.019531 C 182.855469 164.019531 177.328125 158.527344 177.328125 151.738281 Z M 177.328125 151.738281 " fill-opacity="1" fill-rule="nonzero"/></svg>