<svg xmlns="http://www.w3.org/2000/svg" xmlns:xlink="http://www.w3.org/1999/xlink" width="500" zoomAndPan="magnify" viewBox="0 0 375 37.5" height="50" preserveAspectRatio="xMidYMid meet" version="1.0"><defs><filter x="0%" y="0%" width="100%" height="100%" id="dcb0417d76"><feColorMatrix values="0 0 0 0 1 0 0 0 0 1 0 0 0 0 1 0 0 0 1 0" color-interpolation-filters="sRGB"/></filter><clipPath id="b760f25f33"><path d="M 15 0 L 360 0 L 360 37.007812 L 15 37.007812 Z M 15 0 " clip-rule="nonzero"/></clipPath><mask id="1b811a2507"><g filter="url(#dcb0417d76)"><rect x="-37.5" width="450" fill="#000000" y="-3.75" height="45" fill-opacity="0.72"/></g></mask><clipPath id="db56fe61f5"><path d="M 34 24 L 56 24 L 56 37.007812 L 34 37.007812 Z M 34 24 " clip-rule="nonzero"/></clipPath><mask id="3c6e4655d1"><g filter="url(#dcb0417d76)"><rect x="-97.5" width="540" fill="#000000" y="-8.25" height="54" fill-opacity="0.6"/></g></mask><clipPath id="f94ba5f6bf"><path d="M 0.125 0.394531 L 21.441406 0.394531 L 21.441406 13 L 0.125 13 Z M 0.125 0.394531 " clip-rule="nonzero"/></clipPath><clipPath id="4102fb7604"><rect x="0" width="22" y="0" height="14"/></clipPath><clipPath id="dfe3b4588a"><path d="M 6 24 L 28 24 L 28 37.007812 L 6 37.007812 Z M 6 24 " clip-rule="nonzero"/></clipPath><mask id="63c338c407"><g filter="url(#dcb0417d76)"><rect x="-97.5" width="540" fill="#000000" y="-8.25" height="54" fill-opacity="0.5"/></g></mask><clipPath id="a444aabdc2"><path d="M 0.652344 0.394531 L 21.96875 0.394531 L 21.96875 13 L 0.652344 13 Z M 0.652344 0.394531 " clip-rule="nonzero"/></clipPath><clipPath id="030766d95d"><rect x="0" width="22" y="0" height="14"/></clipPath><mask id="f6db745cf2"><g filter="url(#dcb0417d76)"><rect x="-97.5" width="540" fill="#000000" y="-8.25" height="54" fill-opacity="0.5"/></g></mask><clipPath id="385dde556d"><path d="M 0.257812 1 L 22 1 L 22 14 L 0.257812 14 Z M 0.257812 1 " clip-rule="nonzero"/></clipPath><clipPath id="ec353d87c1"><rect x="0" width="23" y="0" height="15"/></clipPath><clipPath id="095fe29d09"><path d="M 0.375 11 L 22 11 L 22 26 L 0.375 26 Z M 0.375 11 " clip-rule="nonzero"/></clipPath><mask id="07d3dc6995"><g filter="url(#dcb0417d76)"><rect x="-97.5" width="540" fill="#000000" y="-8.25" height="54" fill-opacity="0.4"/></g></mask><clipPath id="ac4f50201c"><path d="M 0.375 1 L 21.574219 1 L 21.574219 14 L 0.375 14 Z M 0.375 1 " clip-rule="nonzero"/></clipPath><clipPath id="084f65b8d2"><rect x="0" width="22" y="0" height="15"/></clipPath><mask id="244e8820ae"><g filter="url(#dcb0417d76)"><rect x="-97.5" width="540" fill="#000000" y="-8.25" height="54" fill-opacity="0.6"/></g></mask><clipPath id="9f8fe116ee"><path d="M 0.335938 0 L 21.886719 0 L 21.886719 12.550781 L 0.335938 12.550781 Z M 0.335938 0 " clip-rule="nonzero"/></clipPath><clipPath id="717613f24b"><rect x="0" width="22" y="0" height="13"/></clipPath><mask id="9a33785eae"><g filter="url(#dcb0417d76)"><rect x="-97.5" width="540" fill="#000000" y="-8.25" height="54" fill-opacity="0.5"/></g></mask><clipPath id="7e2c4764d5"><path d="M 1 0 L 22.414062 0 L 22.414062 12.550781 L 1 12.550781 Z M 1 0 " clip-rule="nonzero"/></clipPath><clipPath id="f5d8f7fce8"><rect x="0" width="23" y="0" height="13"/></clipPath><clipPath id="662822aede"><path d="M 89 24 L 111 24 L 111 37.007812 L 89 37.007812 Z M 89 24 " clip-rule="nonzero"/></clipPath><mask id="949f222d3e"><g filter="url(#dcb0417d76)"><rect x="-97.5" width="540" fill="#000000" y="-8.25" height="54" fill-opacity="0.8"/></g></mask><clipPath id="4192aeca5d"><path d="M 0.308594 0.394531 L 21.386719 0.394531 L 21.386719 13 L 0.308594 13 Z M 0.308594 0.394531 " clip-rule="nonzero"/></clipPath><clipPath id="4e4efd1fab"><rect x="0" width="22" y="0" height="14"/></clipPath><clipPath id="55cec69a44"><path d="M 61 24 L 83 24 L 83 37.007812 L 61 37.007812 Z M 61 24 " clip-rule="nonzero"/></clipPath><mask id="341ff90bcc"><g filter="url(#dcb0417d76)"><rect x="-97.5" width="540" fill="#000000" y="-8.25" height="54" fill-opacity="0.7"/></g></mask><clipPath id="7dd0bc5125"><path d="M 0.835938 0.394531 L 21.914062 0.394531 L 21.914062 13 L 0.835938 13 Z M 0.835938 0.394531 " clip-rule="nonzero"/></clipPath><clipPath id="cb50db193f"><rect x="0" width="22" y="0" height="14"/></clipPath><mask id="aac18b77d1"><g filter="url(#dcb0417d76)"><rect x="-97.5" width="540" fill="#000000" y="-8.25" height="54" fill-opacity="0.7"/></g></mask><clipPath id="70b19a3670"><path d="M 0.203125 1 L 21.992188 1 L 21.992188 14 L 0.203125 14 Z M 0.203125 1 " clip-rule="nonzero"/></clipPath><clipPath id="8d2ce10e0d"><rect x="0" width="22" y="0" height="15"/></clipPath><mask id="8c3a982d23"><g filter="url(#dcb0417d76)"><rect x="-97.5" width="540" fill="#000000" y="-8.25" height="54" fill-opacity="0.6"/></g></mask><clipPath id="87598b9810"><path d="M 1 1 L 22.519531 1 L 22.519531 14 L 1 14 Z M 1 1 " clip-rule="nonzero"/></clipPath><clipPath id="4c463ba393"><rect x="0" width="23" y="0" height="15"/></clipPath><mask id="ff571c7dac"><g filter="url(#dcb0417d76)"><rect x="-97.5" width="540" fill="#000000" y="-8.25" height="54" fill-opacity="0.8"/></g></mask><clipPath id="6295c99d20"><path d="M 0.28125 0 L 21.835938 0 L 21.835938 12.550781 L 0.28125 12.550781 Z M 0.28125 0 " clip-rule="nonzero"/></clipPath><clipPath id="b2b2befed4"><rect x="0" width="22" y="0" height="13"/></clipPath><mask id="1bf3226a51"><g filter="url(#dcb0417d76)"><rect x="-97.5" width="540" fill="#000000" y="-8.25" height="54" fill-opacity="0.7"/></g></mask><clipPath id="6ec5758577"><path d="M 1 0 L 22.363281 0 L 22.363281 12.550781 L 1 12.550781 Z M 1 0 " clip-rule="nonzero"/></clipPath><clipPath id="3ba368c7a4"><rect x="0" width="23" y="0" height="13"/></clipPath><clipPath id="1cba8b6c65"><path d="M 323 0 L 344.539062 0 L 344.539062 13 L 323 13 Z M 323 0 " clip-rule="nonzero"/></clipPath><clipPath id="4b1bee88ec"><rect x="0" width="345" y="0" height="38"/></clipPath></defs><g clip-path="url(#b760f25f33)"><g mask="url(#1b811a2507)"><g transform="matrix(1, 0, 0, 1, 15, -0.000000000000001478)"><g clip-path="url(#4b1bee88ec)"><g clip-path="url(#db56fe61f5)"><g mask="url(#3c6e4655d1)"><g transform="matrix(1, 0, 0, 1, 34, 24)"><g clip-path="url(#4102fb7604)"><g clip-path="url(#f94ba5f6bf)"><path fill="#00ff54" d="M 14.125 12.949219 L 0.390625 12.949219 L 7.578125 0.644531 L 21.3125 0.644531 Z M 14.125 12.949219 " fill-opacity="1" fill-rule="nonzero"/></g></g></g></g></g><g clip-path="url(#dfe3b4588a)"><g mask="url(#63c338c407)"><g transform="matrix(1, 0, 0, 1, 6, 24)"><g clip-path="url(#030766d95d)"><g clip-path="url(#a444aabdc2)"><path fill="#00ff54" d="M 14.65625 12.949219 L 0.921875 12.949219 L 8.109375 0.644531 L 21.84375 0.644531 Z M 14.65625 12.949219 " fill-opacity="1" fill-rule="nonzero"/></g></g></g></g></g><g mask="url(#f6db745cf2)"><g transform="matrix(1, 0, 0, 1, 27, 11)"><g clip-path="url(#ec353d87c1)"><g clip-path="url(#385dde556d)"><path fill="#00ff54" d="M 14.578125 13.644531 L 0.84375 13.644531 L 8.035156 1.34375 L 21.769531 1.34375 Z M 14.578125 13.644531 " fill-opacity="1" fill-rule="nonzero"/></g></g></g></g><g clip-path="url(#095fe29d09)"><g mask="url(#07d3dc6995)"><g transform="matrix(1, 0, 0, 1, 0.000000000000001776, 11)"><g clip-path="url(#084f65b8d2)"><g clip-path="url(#ac4f50201c)"><path fill="#00ff54" d="M 14.109375 13.644531 L 0.375 13.644531 L 7.566406 1.34375 L 21.300781 1.34375 Z M 14.109375 13.644531 " fill-opacity="1" fill-rule="nonzero"/></g></g></g></g></g><g mask="url(#244e8820ae)"><g transform="matrix(1, 0, 0, 1, 48, -0.000000000000001478)"><g clip-path="url(#717613f24b)"><g clip-path="url(#9f8fe116ee)"><path fill="#00ff54" d="M 14.484375 12.34375 L 0.75 12.34375 L 7.9375 0.0390625 L 21.671875 0.0390625 Z M 14.484375 12.34375 " fill-opacity="1" fill-rule="nonzero"/></g></g></g></g><g mask="url(#9a33785eae)"><g transform="matrix(1, 0, 0, 1, 20, -0.000000000000001478)"><g clip-path="url(#f5d8f7fce8)"><g clip-path="url(#7e2c4764d5)"><path fill="#00ff54" d="M 15.015625 12.34375 L 1.28125 12.34375 L 8.46875 0.0390625 L 22.203125 0.0390625 Z M 15.015625 12.34375 " fill-opacity="1" fill-rule="nonzero"/></g></g></g></g><g clip-path="url(#662822aede)"><g mask="url(#949f222d3e)"><g transform="matrix(1, 0, 0, 1, 89, 24)"><g clip-path="url(#4e4efd1fab)"><g clip-path="url(#4192aeca5d)"><path fill="#00ff54" d="M 14.0625 12.949219 L 0.328125 12.949219 L 7.515625 0.644531 L 21.25 0.644531 Z M 14.0625 12.949219 " fill-opacity="1" fill-rule="nonzero"/></g></g></g></g></g><g clip-path="url(#55cec69a44)"><g mask="url(#341ff90bcc)"><g transform="matrix(1, 0, 0, 1, 61, 24)"><g clip-path="url(#cb50db193f)"><g clip-path="url(#7dd0bc5125)"><path fill="#00ff54" d="M 14.59375 12.949219 L 0.859375 12.949219 L 8.046875 0.644531 L 21.78125 0.644531 Z M 14.59375 12.949219 " fill-opacity="1" fill-rule="nonzero"/></g></g></g></g></g><g mask="url(#aac18b77d1)"><g transform="matrix(1, 0, 0, 1, 82, 11)"><g clip-path="url(#8d2ce10e0d)"><g clip-path="url(#70b19a3670)"><path fill="#00ff54" d="M 14.515625 13.644531 L 0.78125 13.644531 L 7.972656 1.34375 L 21.707031 1.34375 Z M 14.515625 13.644531 " fill-opacity="1" fill-rule="nonzero"/></g></g></g></g><g mask="url(#8c3a982d23)"><g transform="matrix(1, 0, 0, 1, 54, 11)"><g clip-path="url(#4c463ba393)"><g clip-path="url(#87598b9810)"><path fill="#00ff54" d="M 15.046875 13.644531 L 1.3125 13.644531 L 8.503906 1.34375 L 22.238281 1.34375 Z M 15.046875 13.644531 " fill-opacity="1" fill-rule="nonzero"/></g></g></g></g><g mask="url(#ff571c7dac)"><g transform="matrix(1, 0, 0, 1, 103, -0.000000000000001478)"><g clip-path="url(#b2b2befed4)"><g clip-path="url(#6295c99d20)"><path fill="#00ff54" d="M 14.421875 12.34375 L 0.6875 12.34375 L 7.875 0.0390625 L 21.609375 0.0390625 Z M 14.421875 12.34375 " fill-opacity="1" fill-rule="nonzero"/></g></g></g></g><g mask="url(#1bf3226a51)"><g transform="matrix(1, 0, 0, 1, 75, -0.000000000000001478)"><g clip-path="url(#3ba368c7a4)"><g clip-path="url(#6ec5758577)"><path fill="#00ff54" d="M 14.953125 12.34375 L 1.21875 12.34375 L 8.40625 0.0390625 L 22.140625 0.0390625 Z M 14.953125 12.34375 " fill-opacity="1" fill-rule="nonzero"/></g></g></g></g><path fill="#00ff54" d="M 130.496094 36.949219 L 116.761719 36.949219 L 123.953125 24.644531 L 137.6875 24.644531 Z M 130.496094 36.949219 " fill-opacity="1" fill-rule="nonzero"/><path fill="#00ff54" d="M 151.421875 24.644531 L 137.6875 24.644531 L 144.875 12.34375 L 158.609375 12.34375 Z M 151.421875 24.644531 " fill-opacity="1" fill-rule="nonzero"/><path fill="#00ff54" d="M 123.953125 24.644531 L 110.21875 24.644531 L 117.40625 12.34375 L 131.140625 12.34375 Z M 123.953125 24.644531 " fill-opacity="1" fill-rule="nonzero"/><path fill="#00ff54" d="M 144.855469 12.34375 L 131.121094 12.34375 L 138.3125 0.0390625 L 152.046875 0.0390625 Z M 144.855469 12.34375 " fill-opacity="1" fill-rule="nonzero"/><path fill="#00ff54" d="M 157.964844 36.949219 L 144.230469 36.949219 L 151.421875 24.644531 L 165.15625 24.644531 Z M 157.964844 36.949219 " fill-opacity="1" fill-rule="nonzero"/><path fill="#00ff54" d="M 172.324219 12.34375 L 158.589844 12.34375 L 165.78125 0.0390625 L 179.515625 0.0390625 Z M 172.324219 12.34375 " fill-opacity="1" fill-rule="nonzero"/><path fill="#00ff54" d="M 212.902344 36.949219 L 199.167969 36.949219 L 206.359375 24.644531 L 220.089844 24.644531 Z M 212.902344 36.949219 " fill-opacity="1" fill-rule="nonzero"/><path fill="#00ff54" d="M 185.433594 36.949219 L 171.699219 36.949219 L 178.890625 24.644531 L 192.625 24.644531 Z M 185.433594 36.949219 " fill-opacity="1" fill-rule="nonzero"/><path fill="#00ff54" d="M 206.359375 24.644531 L 192.625 24.644531 L 199.8125 12.34375 L 213.546875 12.34375 Z M 206.359375 24.644531 " fill-opacity="1" fill-rule="nonzero"/><path fill="#00ff54" d="M 178.890625 24.644531 L 165.15625 24.644531 L 172.34375 12.34375 L 186.078125 12.34375 Z M 178.890625 24.644531 " fill-opacity="1" fill-rule="nonzero"/><path fill="#00ff54" d="M 227.261719 12.34375 L 213.527344 12.34375 L 220.71875 0.0390625 L 234.453125 0.0390625 Z M 227.261719 12.34375 " fill-opacity="1" fill-rule="nonzero"/><path fill="#00ff54" d="M 199.792969 12.34375 L 186.058594 12.34375 L 193.25 0.0390625 L 206.984375 0.0390625 Z M 199.792969 12.34375 " fill-opacity="1" fill-rule="nonzero"/><path fill="#00ff54" d="M 212.902344 36.949219 L 199.167969 36.949219 L 206.359375 24.644531 L 220.089844 24.644531 Z M 212.902344 36.949219 " fill-opacity="1" fill-rule="nonzero"/><path fill="#00ff54" d="M 227.261719 12.34375 L 213.527344 12.34375 L 220.71875 0.0390625 L 234.453125 0.0390625 Z M 227.261719 12.34375 " fill-opacity="1" fill-rule="nonzero"/><path fill="#00ff54" d="M 267.839844 36.949219 L 254.105469 36.949219 L 261.292969 24.644531 L 275.027344 24.644531 Z M 267.839844 36.949219 " fill-opacity="1" fill-rule="nonzero"/><path fill="#00ff54" d="M 240.371094 36.949219 L 226.636719 36.949219 L 233.824219 24.644531 L 247.558594 24.644531 Z M 240.371094 36.949219 " fill-opacity="1" fill-rule="nonzero"/><path fill="#00ff54" d="M 261.292969 24.644531 L 247.558594 24.644531 L 254.75 12.34375 L 268.484375 12.34375 Z M 261.292969 24.644531 " fill-opacity="1" fill-rule="nonzero"/><path fill="#00ff54" d="M 233.824219 24.644531 L 220.089844 24.644531 L 227.28125 12.34375 L 241.015625 12.34375 Z M 233.824219 24.644531 " fill-opacity="1" fill-rule="nonzero"/><path fill="#00ff54" d="M 282.199219 12.34375 L 268.464844 12.34375 L 275.65625 0.0390625 L 289.390625 0.0390625 Z M 282.199219 12.34375 " fill-opacity="1" fill-rule="nonzero"/><path fill="#00ff54" d="M 254.730469 12.34375 L 240.996094 12.34375 L 248.1875 0.0390625 L 261.921875 0.0390625 Z M 254.730469 12.34375 " fill-opacity="1" fill-rule="nonzero"/><path fill="#00ff54" d="M 268.113281 36.949219 L 254.378906 36.949219 L 261.570312 24.644531 L 275.304688 24.644531 Z M 268.113281 36.949219 " fill-opacity="1" fill-rule="nonzero"/><path fill="#00ff54" d="M 282.476562 12.34375 L 268.742188 12.34375 L 275.929688 0.0390625 L 289.664062 0.0390625 Z M 282.476562 12.34375 " fill-opacity="1" fill-rule="nonzero"/><path fill="#00ff54" d="M 323.050781 36.949219 L 309.316406 36.949219 L 316.507812 24.644531 L 330.242188 24.644531 Z M 323.050781 36.949219 " fill-opacity="1" fill-rule="nonzero"/><path fill="#00ff54" d="M 295.582031 36.949219 L 281.847656 36.949219 L 289.039062 24.644531 L 302.773438 24.644531 Z M 295.582031 36.949219 " fill-opacity="1" fill-rule="nonzero"/><path fill="#00ff54" d="M 316.507812 24.644531 L 302.773438 24.644531 L 309.960938 12.34375 L 323.695312 12.34375 Z M 316.507812 24.644531 " fill-opacity="1" fill-rule="nonzero"/><path fill="#00ff54" d="M 289.039062 24.644531 L 275.304688 24.644531 L 282.492188 12.34375 L 296.226562 12.34375 Z M 289.039062 24.644531 " fill-opacity="1" fill-rule="nonzero"/><g clip-path="url(#1cba8b6c65)"><path fill="#00ff54" d="M 337.410156 12.34375 L 323.675781 12.34375 L 330.867188 0.0390625 L 344.601562 0.0390625 Z M 337.410156 12.34375 " fill-opacity="1" fill-rule="nonzero"/></g><path fill="#00ff54" d="M 309.941406 12.34375 L 296.210938 12.34375 L 303.398438 0.0390625 L 317.132812 0.0390625 Z M 309.941406 12.34375 " fill-opacity="1" fill-rule="nonzero"/></g></g></g></g></svg>