<svg xmlns="http://www.w3.org/2000/svg" xmlns:xlink="http://www.w3.org/1999/xlink" width="400" zoomAndPan="magnify" viewBox="0 0 300 299.999988" height="400" preserveAspectRatio="xMidYMid meet" version="1.0"><defs><clipPath id="c91834e3bb"><path d="M 0.0625 172.261719 L 299.9375 172.261719 L 299.9375 285 L 0.0625 285 Z M 0.0625 172.261719 " clip-rule="nonzero"/></clipPath></defs><path fill="#1cff67" d="M 151.019531 15 C 132.578125 15 117.578125 30.003906 117.578125 48.441406 C 117.578125 66.882812 132.578125 81.886719 151.019531 81.886719 C 169.457031 81.886719 184.460938 66.882812 184.460938 48.441406 C 184.460938 30.003906 169.457031 15 151.019531 15 " fill-opacity="1" fill-rule="nonzero"/><path fill="#1cff67" d="M 219.355469 45.460938 C 203.757812 45.460938 191.070312 58.148438 191.070312 73.746094 C 191.070312 89.339844 203.757812 102.027344 219.355469 102.027344 C 234.949219 102.027344 247.636719 89.339844 247.636719 73.746094 C 247.636719 58.148438 234.949219 45.460938 219.355469 45.460938 " fill-opacity="1" fill-rule="nonzero"/><path fill="#1cff67" d="M 81.726562 45.460938 C 66.132812 45.460938 53.445312 58.148438 53.445312 73.746094 C 53.445312 89.339844 66.132812 102.027344 81.726562 102.027344 C 97.324219 102.027344 110.007812 89.339844 110.007812 73.746094 C 110.007812 58.148438 97.324219 45.460938 81.726562 45.460938 " fill-opacity="1" fill-rule="nonzero"/><g clip-path="url(#c91834e3bb)"><path fill="#1cff67" d="M 299.109375 209.753906 C 294.917969 196.074219 279.601562 191.40625 266.148438 195.320312 L 213.84375 211.167969 C 212.484375 211.582031 211.945312 213.195312 212.75 214.363281 C 217.199219 220.828125 218.691406 229.445312 215.710938 237.433594 C 210.890625 250.339844 196.492188 256.867188 183.894531 252.160156 L 132.484375 232.960938 C 131.359375 232.539062 130.820312 231.253906 131.304688 230.15625 C 131.753906 229.144531 132.914062 228.652344 133.949219 229.042969 L 184.621094 247.964844 C 195.449219 252.007812 207.667969 246.648438 211.671875 235.808594 C 216.042969 223.960938 209.316406 212.648438 197.472656 208.222656 L 113.738281 176.953125 C 101.738281 171.960938 88.664062 171.28125 75.601562 176.007812 L 25.253906 193.972656 C 9.761719 199.5 -0.398438 214.375 0.0820312 230.816406 C 0.824219 256.253906 25.921875 273.804688 50.039062 265.683594 C 60.511719 262.160156 70.265625 259.59375 76.359375 259.640625 C 103.046875 259.84375 137.234375 278.953125 148.921875 283.0625 C 156.253906 285.640625 160.902344 285.652344 167.535156 283.113281 C 169.871094 282.214844 172.210938 281.320312 174.613281 280.613281 C 174.679688 280.59375 174.746094 280.570312 174.8125 280.542969 L 280.050781 236.816406 C 280.121094 236.789062 280.1875 236.765625 280.253906 236.746094 C 293.652344 232.804688 302.816406 221.84375 299.109375 209.753906 " fill-opacity="1" fill-rule="nonzero"/></g><path fill="#1cff67" d="M 248.597656 122.710938 C 240.789062 114.902344 230.402344 110.597656 219.355469 110.597656 C 210.691406 110.597656 202.351562 113.289062 195.386719 118.25 C 193.011719 113.359375 189.816406 108.84375 185.855469 104.886719 C 176.554688 95.582031 164.179688 90.457031 151.019531 90.457031 C 137.859375 90.457031 125.484375 95.582031 116.175781 104.886719 C 112.082031 108.980469 108.800781 113.671875 106.40625 118.761719 C 99.304688 113.46875 90.722656 110.597656 81.726562 110.597656 C 70.679688 110.597656 60.296875 114.902344 52.484375 122.710938 C 44.671875 130.523438 40.371094 140.910156 40.371094 151.953125 L 40.371094 172.4375 C 40.371094 176.210938 40.875 179.90625 41.84375 183.445312 L 76.144531 171.207031 C 84.179688 168.300781 92.214844 167.441406 100.007812 168.371094 L 100.007812 149.652344 C 100.007812 143.808594 100.992188 138.089844 102.933594 132.65625 C 103.460938 131.179688 105.089844 130.410156 106.566406 130.9375 C 108.039062 131.46875 108.808594 133.089844 108.28125 134.566406 C 106.558594 139.386719 105.6875 144.460938 105.6875 149.652344 L 105.6875 169.375 C 108.597656 170.054688 111.46875 170.988281 114.277344 172.152344 L 186.195312 199.011719 C 186.195312 199.011719 187.109375 199.378906 188.511719 199.945312 C 193.160156 192.730469 195.601562 184.433594 195.601562 175.699219 L 195.601562 149.652344 C 195.601562 144.175781 194.628906 138.828125 192.710938 133.761719 C 192.15625 132.292969 192.890625 130.65625 194.359375 130.101562 C 195.824219 129.546875 197.464844 130.285156 198.019531 131.75 C 200.183594 137.460938 201.277344 143.484375 201.277344 149.652344 L 201.277344 175.699219 C 201.277344 181.515625 200.300781 187.21875 198.375 192.648438 C 197.199219 195.957031 195.6875 199.117188 193.859375 202.101562 C 197.914062 203.746094 202.222656 205.507812 203.058594 205.914062 C 207.691406 208.160156 213.027344 206.78125 214.386719 206.371094 L 254.53125 194.203125 C 258.558594 187.730469 260.710938 180.25 260.710938 172.4375 L 260.710938 151.957031 C 260.710938 140.910156 256.410156 130.523438 248.597656 122.710938 " fill-opacity="1" fill-rule="nonzero"/></svg>